<?xml version="1.0" encoding="UTF-8" standalone="no"?>
<!-- Created with Inkscape (http://www.inkscape.org/) -->

<svg
   width="640"
   height="640"
   viewBox="0 0 169.33333 169.33333"
   version="1.1"
   id="svg1"
   inkscape:version="1.3 (0e150ed6c4, 2023-07-21)"
   sodipodi:docname="logo_v2.1.svg"
   inkscape:export-filename="logo_v2.1.png"
   inkscape:export-xdpi="25.200001"
   inkscape:export-ydpi="25.200001"
   xmlns:inkscape="http://www.inkscape.org/namespaces/inkscape"
   xmlns:sodipodi="http://sodipodi.sourceforge.net/DTD/sodipodi-0.dtd"
   xmlns="http://www.w3.org/2000/svg"
   xmlns:svg="http://www.w3.org/2000/svg">
  <sodipodi:namedview
     id="namedview1"
     pagecolor="#ffffff"
     bordercolor="#000000"
     borderopacity="0.25"
     inkscape:showpageshadow="2"
     inkscape:pageopacity="0.0"
     inkscape:pagecheckerboard="0"
     inkscape:deskcolor="#d1d1d1"
     inkscape:document-units="mm"
     inkscape:zoom="1.0141844"
     inkscape:cx="345.10489"
     inkscape:cy="353.48601"
     inkscape:window-width="1920"
     inkscape:window-height="1011"
     inkscape:window-x="0"
     inkscape:window-y="0"
     inkscape:window-maximized="1"
     inkscape:current-layer="layer1" />
  <defs
     id="defs1">
    <clipPath
       clipPathUnits="userSpaceOnUse"
       id="clipPath1">
      <g
         id="g2"
         transform="translate(5e-6,60.589586)">
        <g
           inkscape:label="Clip"
           id="use1"
           transform="translate(-5e-6,-60.589586)"
           clip-path="url(#clipPath1)">
          <g
             id="g24"
             transform="translate(-5e-6,-60.589586)">
            <g
               id="g12">
              <rect
                 style="fill:#563635;fill-opacity:1;stroke-width:0.264583"
                 id="rect5"
                 width="63.5"
                 height="84.666664"
                 x="52.916668"
                 y="105.83334"
                 rx="4.2333331"
                 ry="4.2333331" />
              <rect
                 style="fill:#563635;fill-opacity:1;stroke-width:0.0440972"
                 id="rect6"
                 width="10.583333"
                 height="14.111111"
                 x="63.5"
                 y="92.604164"
                 rx="0.7055555"
                 ry="0.7055555" />
              <rect
                 style="fill:#563635;fill-opacity:1;stroke-width:0.0440972"
                 id="rect7"
                 width="10.583333"
                 height="14.111111"
                 x="95.25"
                 y="92.604164"
                 rx="0.7055555"
                 ry="0.7055555" />
              <rect
                 style="fill:#43696a;fill-opacity:1;stroke-width:0.264583"
                 id="rect8"
                 width="21.166666"
                 height="15.875"
                 x="74.083336"
                 y="114.97229" />
              <rect
                 style="fill:#43696a;fill-opacity:1;stroke-width:0.264583"
                 id="rect9"
                 width="42.333332"
                 height="3.175"
                 x="63.500004"
                 y="163.49052" />
              <rect
                 style="fill:#43696a;fill-opacity:1;stroke-width:0.264583"
                 id="rect10"
                 width="3.175"
                 height="15.875"
                 x="63.500004"
                 y="163.49052" />
              <rect
                 style="fill:#43696a;fill-opacity:1;stroke-width:0.264583"
                 id="rect11"
                 width="3.175"
                 height="15.875"
                 x="102.65833"
                 y="163.49052" />
            </g>
            <g
               id="g17">
              <rect
                 style="fill:#563635;fill-opacity:1;stroke-width:0.176389"
                 id="rect12"
                 width="42.333332"
                 height="56.444443"
                 x="121.70834"
                 y="117.73959"
                 rx="2.822222"
                 ry="2.822222" />
              <rect
                 style="fill:#563635;fill-opacity:1;stroke-width:0.0293981"
                 id="rect13"
                 width="7.0555553"
                 height="9.4074068"
                 x="132.29167"
                 y="108.92014"
                 rx="0.47037032"
                 ry="0.47037032" />
              <rect
                 style="fill:#563635;fill-opacity:1;stroke-width:0.0293981"
                 id="rect14"
                 width="7.0555553"
                 height="9.4074068"
                 x="146.40277"
                 y="108.92014"
                 rx="0.47037032"
                 ry="0.47037032" />
              <rect
                 style="fill:#abd1af;fill-opacity:1;stroke-width:0.176389"
                 id="rect15"
                 width="14.111111"
                 height="10.583333"
                 x="135.81944"
                 y="123.83222" />
              <rect
                 style="fill:#abd1af;fill-opacity:1;stroke-width:0.176389"
                 id="rect16"
                 width="28.222221"
                 height="2.1166666"
                 x="128.76389"
                 y="156.1777" />
              <rect
                 style="fill:#abd1af;fill-opacity:1;stroke-width:0.176389"
                 id="rect17"
                 width="2.1166666"
                 height="10.583333"
                 x="154.86943"
                 y="156.1777" />
            </g>
            <g
               id="g23">
              <rect
                 style="fill:#563635;fill-opacity:1;stroke-width:0.176389"
                 id="rect18"
                 width="42.333332"
                 height="56.444443"
                 x="5.291667"
                 y="117.73959"
                 rx="2.822222"
                 ry="2.822222" />
              <rect
                 style="fill:#563635;fill-opacity:1;stroke-width:0.0293981"
                 id="rect19"
                 width="7.0555553"
                 height="9.4074068"
                 x="15.875"
                 y="108.92014"
                 rx="0.47037032"
                 ry="0.47037032" />
              <rect
                 style="fill:#563635;fill-opacity:1;stroke-width:0.0293981"
                 id="rect20"
                 width="7.0555553"
                 height="9.4074068"
                 x="29.986105"
                 y="108.92014"
                 rx="0.47037032"
                 ry="0.47037032" />
              <rect
                 style="fill:#d9d3a8;fill-opacity:1;stroke-width:0.176389"
                 id="rect21"
                 width="14.111111"
                 height="10.583333"
                 x="19.402771"
                 y="123.83222" />
              <rect
                 style="fill:#d9d3a8;fill-opacity:1;stroke-width:0.176389"
                 id="rect22"
                 width="28.222221"
                 height="2.1166666"
                 x="12.347219"
                 y="156.1777" />
              <rect
                 style="fill:#d9d3a8;fill-opacity:1;stroke-width:0.176389"
                 id="rect23"
                 width="2.1166666"
                 height="10.583333"
                 x="12.347219"
                 y="156.1777" />
            </g>
          </g>
        </g>
      </g>
    </clipPath>
  </defs>
  <g
     inkscape:label="Layer 1"
     inkscape:groupmode="layer"
     id="layer1">
    <g
       id="g1">
      <path
         id="path12"
         style="fill:#f39237;stroke-width:0.264583"
         d="M 84.666667 0 A 84.666664 84.666664 0 0 0 0 84.666667 A 84.666664 84.666664 0 0 0 84.666667 169.33333 A 84.666664 84.666664 0 0 0 169.33333 84.666667 A 84.666664 84.666664 0 0 0 84.666667 0 z M 64.205383 32.014583 L 73.37795 32.014583 C 73.768827 32.014583 74.083333 32.32909 74.083333 32.719967 L 74.083333 45.24375 L 95.25 45.24375 L 95.25 32.719967 C 95.25 32.32909 95.564509 32.014583 95.955383 32.014583 L 105.12795 32.014583 C 105.51883 32.014583 105.83333 32.32909 105.83333 32.719967 L 105.83333 45.24375 L 112.18333 45.24375 C 114.5286 45.24375 116.41667 47.131829 116.41667 49.477083 L 116.41667 125.67708 C 116.41667 128.02235 114.5286 129.91042 112.18333 129.91042 L 57.15 129.91042 C 54.804742 129.91042 52.916667 128.02235 52.916667 125.67708 L 52.916667 49.477083 C 52.916667 47.131829 54.804742 45.24375 57.15 45.24375 L 63.5 45.24375 L 63.5 32.719967 C 63.5 32.32909 63.814509 32.014583 64.205383 32.014583 z M 16.345256 48.330383 L 22.460128 48.330383 C 22.720713 48.330383 22.930383 48.540571 22.930383 48.801156 L 22.930383 57.15 L 29.986283 57.15 L 29.986283 48.801156 C 29.986283 48.540571 30.195953 48.330383 30.456539 48.330383 L 36.571411 48.330383 C 36.831996 48.330383 37.041667 48.540571 37.041667 48.801156 L 37.041667 57.15 L 44.80295 57.15 C 46.366455 57.15 47.625 58.408545 47.625 59.97205 L 47.625 110.77205 C 47.625 112.33556 46.366455 113.59462 44.80295 113.59462 L 8.1137166 113.59462 C 6.5502104 113.59462 5.2916667 112.33556 5.2916667 110.77205 L 5.2916667 59.97205 C 5.2916667 58.408545 6.5502104 57.15 8.1137166 57.15 L 15.875 57.15 L 15.875 48.801156 C 15.875 48.540571 16.08467 48.330383 16.345256 48.330383 z M 132.76192 48.330383 L 138.87679 48.330383 C 139.13737 48.330383 139.34705 48.540571 139.34705 48.801156 L 139.34705 57.15 L 146.40295 57.15 L 146.40295 48.801156 C 146.40295 48.540571 146.61263 48.330383 146.87321 48.330383 L 152.98808 48.330383 C 153.24866 48.330383 153.45833 48.540571 153.45833 48.801156 L 153.45833 57.15 L 161.21962 57.15 C 162.78313 57.15 164.04167 58.408543 164.04167 59.97205 L 164.04167 110.77205 C 164.04167 112.33556 162.78313 113.59462 161.21962 113.59462 L 124.53038 113.59462 C 122.96686 113.59462 121.70833 112.33556 121.70833 110.77205 L 121.70833 59.97205 C 121.70833 58.408543 122.96686 57.15 124.53038 57.15 L 132.29167 57.15 L 132.29167 48.801156 C 132.29167 48.540571 132.50134 48.330383 132.76192 48.330383 z " />
      <rect
         style="fill:#f39237;fill-opacity:1;stroke-width:0.264583"
         id="rect2"
         width="21.166666"
         height="15.875"
         x="74.083328"
         y="54.382706" />
      <rect
         style="fill:#f39237;fill-opacity:1;stroke-width:0.264583"
         id="rect3"
         width="42.333332"
         height="3.175"
         x="63.5"
         y="102.90094" />
      <rect
         style="fill:#f39237;fill-opacity:1;stroke-width:0.264583"
         id="rect4"
         width="3.175"
         height="15.875"
         x="63.5"
         y="102.90094" />
      <rect
         style="fill:#f39237;fill-opacity:1;stroke-width:0.264583"
         id="rect4-7"
         width="3.175"
         height="15.875"
         x="102.65833"
         y="102.90094" />
      <rect
         style="fill:#f39237;fill-opacity:1;stroke-width:0.176389"
         id="rect2-6"
         width="14.111111"
         height="10.583333"
         x="135.81944"
         y="63.242638" />
      <rect
         style="fill:#f39237;fill-opacity:1;stroke-width:0.176389"
         id="rect3-1"
         width="28.222221"
         height="2.1166666"
         x="128.76389"
         y="95.58812" />
      <rect
         style="fill:#f39237;fill-opacity:1;stroke-width:0.176389"
         id="rect4-7-7"
         width="2.1166666"
         height="10.583333"
         x="154.86943"
         y="95.58812" />
      <rect
         style="fill:#f39237;fill-opacity:1;stroke-width:0.176389"
         id="rect2-6-9"
         width="14.111111"
         height="10.583333"
         x="19.402765"
         y="63.242638" />
      <rect
         style="fill:#f39237;fill-opacity:1;stroke-width:0.176389"
         id="rect3-1-2"
         width="28.222221"
         height="2.1166666"
         x="12.347215"
         y="95.58812" />
      <rect
         style="fill:#f39237;fill-opacity:1;stroke-width:0.176389"
         id="rect4-8-2"
         width="2.1166666"
         height="10.583333"
         x="12.347215"
         y="95.58812" />
    </g>
  </g>
</svg>
