<?xml version="1.0" encoding="UTF-8" standalone="no"?>
<!-- Created with Inkscape (http://www.inkscape.org/) -->

<svg
   width="341.33301"
   height="512"
   viewBox="0 0 90.311022 135.46667"
   version="1.1"
   id="svg4032"
   inkscape:version="1.3 (0e150ed6c4, 2023-07-21)"
   sodipodi:docname="ruck_pin.svg"
   inkscape:export-filename="ruck_pin.png"
   inkscape:export-xdpi="31.500002"
   inkscape:export-ydpi="31.500002"
   xml:space="preserve"
   xmlns:inkscape="http://www.inkscape.org/namespaces/inkscape"
   xmlns:sodipodi="http://sodipodi.sourceforge.net/DTD/sodipodi-0.dtd"
   xmlns="http://www.w3.org/2000/svg"
   xmlns:svg="http://www.w3.org/2000/svg"
   xmlns:rdf="http://www.w3.org/1999/02/22-rdf-syntax-ns#"
   xmlns:cc="http://creativecommons.org/ns#"
   xmlns:dc="http://purl.org/dc/elements/1.1/"><defs
     id="defs4026" /><sodipodi:namedview
     id="base"
     pagecolor="#ffffff"
     bordercolor="#666666"
     borderopacity="1.0"
     inkscape:pageopacity="0.0"
     inkscape:pageshadow="2"
     inkscape:zoom="0.98994949"
     inkscape:cx="99.500026"
     inkscape:cy="229.8097"
     inkscape:document-units="px"
     inkscape:current-layer="layer1"
     showgrid="false"
     units="px"
     inkscape:window-width="1920"
     inkscape:window-height="1011"
     inkscape:window-x="0"
     inkscape:window-y="0"
     inkscape:window-maximized="1"
     inkscape:measure-start="253.929,99.6429"
     inkscape:measure-end="253.929,84.2857"
     inkscape:showpageshadow="2"
     inkscape:pagecheckerboard="0"
     inkscape:deskcolor="#d1d1d1" /><metadata
     id="metadata4029"><rdf:RDF><cc:Work
         rdf:about=""><dc:format>image/svg+xml</dc:format><dc:type
           rdf:resource="http://purl.org/dc/dcmitype/StillImage" /><dc:creator><cc:Agent><dc:title>Franjo Lukezic</dc:title></cc:Agent></dc:creator><dc:publisher><cc:Agent><dc:title>Barefoot Stache</dc:title></cc:Agent></dc:publisher><dc:rights><cc:Agent><dc:title>Free for distribution, would be nice to mention creator, though not needed</dc:title></cc:Agent></dc:rights></cc:Work></rdf:RDF></metadata><g
     inkscape:label="Layer 1"
     inkscape:groupmode="layer"
     id="layer1"
     transform="translate(0,-161.53332)"><g
       id="g3"
       transform="matrix(0.99999899,0,0,0.99999899,-6.9673513,1.6261542e-4)"><path
         id="path1214"
         style="fill:#000080;stroke-width:3.28083;stroke-linecap:round;stroke-linejoin:round;stroke-dasharray:6.56167;stroke-dashoffset:3.28083"
         d="m 52.122908,161.53332 c -24.938724,1e-5 -45.1555505,20.21684 -45.1555485,45.15556 4.81e-4,9.08415 5.3019615,21.70811 7.8630795,25.45926 2.561118,3.75115 37.292469,64.85185 37.292469,64.85185 0,0 34.728525,-61.09611 37.290405,-64.84772 2.56188,-3.75161 7.8649,-16.37761 7.86516,-25.46339 0,-24.93873 -20.216835,-45.15556 -45.155565,-45.15556 z"
         sodipodi:nodetypes="sczczcs" /><circle
         style="fill:#ffffff;fill-opacity:0.219302;stroke:none;stroke-width:0.375304;stroke-linecap:square;stroke-linejoin:bevel"
         id="path3"
         cx="52.122917"
         cy="207.32787"
         r="39.6875" /><g
         id="g1"
         transform="matrix(0.5660377,0,0,0.5660377,13.783297,74.379296)"><path
           style="opacity:1;fill:#999999;fill-opacity:1;stroke:none;stroke-width:0.214382;stroke-linecap:butt;stroke-miterlimit:4;stroke-dasharray:none;stroke-dashoffset:0;stroke-opacity:1"
           d="m 41.804166,185.87499 a 12.7,12.7 0 0 0 -12.7,12.7 v 65.61666 a 12.7,12.7 0 0 0 12.7,12.7 h 51.858333 a 12.7,12.7 0 0 0 12.700001,-12.7 v -65.61666 a 12.7,12.7 0 0 0 -12.700001,-12.7 z"
           id="rect878"
           inkscape:connector-curvature="0" /><path
           style="opacity:1;fill:#666666;fill-opacity:1;stroke:none;stroke-width:0.214382;stroke-linecap:butt;stroke-miterlimit:4;stroke-dasharray:none;stroke-dashoffset:0;stroke-opacity:1"
           d="m 29.104166,264.19165 v 8.46667 a 12.7,12.7 0 0 0 12.7,12.7 h 51.858333 a 12.7,12.7 0 0 0 12.700001,-12.7 v -8.46667 a 12.7,12.7 0 0 1 -12.700001,12.7 H 41.804166 a 12.7,12.7 0 0 1 -12.7,-12.7 z"
           id="path895"
           inkscape:connector-curvature="0" /><path
           style="opacity:1;fill:#cccccc;fill-opacity:1;stroke:none;stroke-width:0.211667;stroke-linecap:butt;stroke-miterlimit:4;stroke-dasharray:none;stroke-dashoffset:0;stroke-opacity:1"
           d="m 42.333333,243.02499 a 8.4666663,8.4666663 0 0 0 -7.345807,4.27726 33.866664,16.933332 0 0 0 32.745807,12.65607 33.866664,16.933332 0 0 0 32.736497,-12.6783 8.4666663,8.4666663 0 0 0 -7.336497,-4.25503 z"
           id="path902"
           inkscape:connector-curvature="0" /><path
           style="opacity:1;fill:#666666;fill-opacity:1;stroke:none;stroke-width:0.211667;stroke-linecap:butt;stroke-miterlimit:4;stroke-dasharray:none;stroke-dashoffset:0;stroke-opacity:1"
           d="m 33.866927,259.96349 v 3.17138 h 0.09043 a 33.866664,16.933332 0 0 0 33.760214,15.87345 33.866664,16.933332 0 0 0 33.791739,-15.87345 h 0.0904 v -3.16932 a 33.866664,16.933332 0 0 1 -33.866152,16.9261 33.866664,16.933332 0 0 1 -33.866666,-16.92816 z"
           id="path904"
           inkscape:connector-curvature="0" /><path
           style="opacity:1;fill:#cccccc;fill-opacity:1;stroke:none;stroke-width:0.211667;stroke-linecap:butt;stroke-miterlimit:4;stroke-dasharray:none;stroke-dashoffset:0;stroke-opacity:1"
           d="m 100.73545,247.78904 a 33.866664,16.933332 0 0 1 -33.002117,13.22761 33.866664,16.933332 0 0 1 -33.01194,-13.21728 8.4666663,8.4666663 0 0 0 -0.854726,3.69228 v 8.46667 A 33.866664,16.933332 0 0 0 67.733333,276.89165 33.866664,16.933332 0 0 0 101.6,259.95832 v -8.46667 a 8.4666663,8.4666663 0 0 0 -0.86455,-3.70261 z"
           id="rect832"
           inkscape:connector-curvature="0" /><path
           style="opacity:1;fill:#666666;fill-opacity:1;stroke:none;stroke-width:0.211667;stroke-linecap:butt;stroke-miterlimit:4;stroke-dasharray:none;stroke-dashoffset:0;stroke-opacity:1"
           d="m 33.866666,215.50832 v 4.23333 c 0,4.67601 3.790654,8.46667 8.466667,8.46667 h 50.799999 c 4.676013,0 8.466668,-3.79066 8.466668,-8.46667 v -4.23333 c 0,4.67601 -3.790655,8.46667 -8.466668,8.46667 H 42.333333 c -4.676013,0 -8.466667,-3.79066 -8.466667,-8.46667 z"
           id="path873"
           inkscape:connector-curvature="0" /><path
           style="opacity:1;fill:#cccccc;fill-opacity:1;stroke:none;stroke-width:0.211667;stroke-linecap:butt;stroke-miterlimit:4;stroke-dasharray:none;stroke-dashoffset:0;stroke-opacity:1"
           d="m 42.333333,181.64165 c -4.676012,0 -8.466666,3.79066 -8.466666,8.46667 v 25.4 c 0,4.67601 3.790654,8.46667 8.466666,8.46667 h 50.8 c 4.676014,0 8.466667,-3.79066 8.466667,-8.46667 v -25.4 c 0,-4.67601 -3.790653,-8.46667 -8.466667,-8.46667 z"
           id="rect830"
           inkscape:connector-curvature="0"
           sodipodi:nodetypes="sssssssss" /><path
           style="opacity:1;fill:#4d4d4d;fill-opacity:1;stroke:none;stroke-width:0.211667;stroke-linecap:butt;stroke-miterlimit:4;stroke-dasharray:none;stroke-dashoffset:0;stroke-opacity:1"
           d="m 84.666664,180.58331 v 82.54997 c 0,2.338 1.89533,4.23333 4.23334,4.23333 2.338,0 4.23333,-1.89533 4.23333,-4.23333 v -82.54997 z"
           id="path921"
           inkscape:connector-curvature="0"
           sodipodi:nodetypes="cssscc" /><path
           sodipodi:nodetypes="cssscc"
           inkscape:connector-curvature="0"
           id="path932"
           d="m 42.333334,180.58331 v 82.54997 c 0,2.338 1.89533,4.23333 4.23333,4.23333 2.33801,0 4.23334,-1.89533 4.23334,-4.23333 v -82.54997 z"
           style="opacity:1;fill:#4d4d4d;fill-opacity:1;stroke:none;stroke-width:0.211667;stroke-linecap:butt;stroke-miterlimit:4;stroke-dasharray:none;stroke-dashoffset:0;stroke-opacity:1" /><path
           inkscape:connector-curvature="0"
           id="path966"
           d="m 41.804174,201.74999 a 1.0583333,1.0583333 0 0 0 -1.05834,1.05834 v 7.40833 a 1.0583333,1.0583333 0 0 0 1.05834,1.05833 h 9.525 a 1.0583333,1.0583333 0 0 0 1.05833,-1.05833 v -7.40833 a 1.0583333,1.0583333 0 0 0 -1.05833,-1.05834 z m 0.52916,0.52917 h 8.46667 c 0.58632,0 1.05833,0.47202 1.05833,1.05833 v 6.35 c 0,0.58632 -0.47201,1.05834 -1.05833,1.05834 h -8.46667 c -0.58631,0 -1.05833,-0.47202 -1.05833,-1.05834 v -6.35 c 0,-0.58631 0.47202,-1.05833 1.05833,-1.05833 z"
           style="opacity:1;fill:#f2f2f2;fill-opacity:1;stroke:none;stroke-width:1.05833;stroke-linecap:butt;stroke-miterlimit:4;stroke-dasharray:none;stroke-dashoffset:0;stroke-opacity:1" /><path
           inkscape:connector-curvature="0"
           id="path969"
           d="m 84.137494,253.60832 a 1.0583333,1.0583333 0 0 0 -1.05833,1.05833 v 7.40834 a 1.0583333,1.0583333 0 0 0 1.05833,1.05833 h 0.52917 v -0.52917 c -0.58631,0 -1.05833,-0.47201 -1.05833,-1.05833 v -6.35 c 0,-0.58631 0.47202,-1.05833 1.05833,-1.05833 h 8.46667 c 0.58631,0 1.05833,0.47202 1.05833,1.05833 v 6.35 c 0,0.58632 -0.47202,1.05833 -1.05833,1.05833 v 0.52917 h 0.52916 a 1.0583333,1.0583333 0 0 0 1.05834,-1.05833 v -7.40834 a 1.0583333,1.0583333 0 0 0 -1.05834,-1.05833 z"
           style="opacity:1;fill:#f2f2f2;fill-opacity:1;stroke:none;stroke-width:1.05833;stroke-linecap:butt;stroke-miterlimit:4;stroke-dasharray:none;stroke-dashoffset:0;stroke-opacity:1" /><path
           style="opacity:1;fill:#f2f2f2;fill-opacity:1;stroke:none;stroke-width:1.05833;stroke-linecap:butt;stroke-miterlimit:4;stroke-dasharray:none;stroke-dashoffset:0;stroke-opacity:1"
           d="m 84.137503,201.74999 a 1.0583333,1.0583333 0 0 0 -1.05834,1.05834 v 7.40833 a 1.0583333,1.0583333 0 0 0 1.05834,1.05833 h 9.525 a 1.0583333,1.0583333 0 0 0 1.05833,-1.05833 v -7.40833 a 1.0583333,1.0583333 0 0 0 -1.05833,-1.05834 z m 0.52916,0.52917 h 8.46667 c 0.58632,0 1.05833,0.47202 1.05833,1.05833 v 6.35 c 0,0.58632 -0.47201,1.05834 -1.05833,1.05834 h -8.46667 c -0.58631,0 -1.05833,-0.47202 -1.05833,-1.05834 v -6.35 c 0,-0.58631 0.47202,-1.05833 1.05833,-1.05833 z"
           id="path971"
           inkscape:connector-curvature="0" /><path
           style="opacity:1;fill:#f2f2f2;fill-opacity:1;stroke:none;stroke-width:1.05833;stroke-linecap:butt;stroke-miterlimit:4;stroke-dasharray:none;stroke-dashoffset:0;stroke-opacity:1"
           d="m 41.804169,253.60832 a 1.0583333,1.0583333 0 0 0 -1.058333,1.05833 v 7.40834 a 1.0583333,1.0583333 0 0 0 1.058333,1.05833 h 0.529167 v -0.52917 c -0.586312,0 -1.058334,-0.47201 -1.058334,-1.05833 v -6.35 c 0,-0.58631 0.472022,-1.05833 1.058334,-1.05833 h 8.466666 c 0.58632,0 1.058334,0.47202 1.058334,1.05833 v 6.35 c 0,0.58632 -0.472014,1.05833 -1.058334,1.05833 v 0.52917 h 0.529167 a 1.0583333,1.0583333 0 0 0 1.058333,-1.05833 v -7.40834 a 1.0583333,1.0583333 0 0 0 -1.058333,-1.05833 z"
           id="rect947"
           inkscape:connector-curvature="0" /><path
           style="opacity:1;fill:#4d4d4d;fill-opacity:1;stroke:none;stroke-width:0.627889;stroke-linecap:butt;stroke-miterlimit:4;stroke-dasharray:none;stroke-dashoffset:0;stroke-opacity:1"
           d="m 60.325,173.17498 a 8.4666666,8.4666525 0 0 0 -8.466667,8.46667 h 4.233333 A 4.233333,4.233333 0 0 1 60.325,177.40832 h 14.816666 a 4.233333,4.233333 0 0 1 4.233333,4.23333 h 4.233334 a 8.4666666,8.4666525 0 0 0 -8.466667,-8.46667 z"
           id="rect975"
           inkscape:connector-curvature="0" /></g></g></g></svg>
