<?xml version="1.0" encoding="UTF-8" standalone="no"?>
<!-- Created with Inkscape (http://www.inkscape.org/) -->

<svg
   width="1024"
   height="1024"
   viewBox="0 0 270.93332 270.93333"
   version="1.1"
   id="svg1"
   inkscape:version="1.4.2 (ebf0e940d0, 2025-05-08)"
   sodipodi:docname="logo_circle_v1.4.svg"
   inkscape:export-filename="logo_circle_final.png"
   inkscape:export-xdpi="96"
   inkscape:export-ydpi="96"
   xmlns:inkscape="http://www.inkscape.org/namespaces/inkscape"
   xmlns:sodipodi="http://sodipodi.sourceforge.net/DTD/sodipodi-0.dtd"
   xmlns:xlink="http://www.w3.org/1999/xlink"
   xmlns="http://www.w3.org/2000/svg"
   xmlns:svg="http://www.w3.org/2000/svg">
  <sodipodi:namedview
     id="namedview1"
     pagecolor="#ffffff"
     bordercolor="#000000"
     borderopacity="0.25"
     inkscape:showpageshadow="2"
     inkscape:pageopacity="0.0"
     inkscape:pagecheckerboard="0"
     inkscape:deskcolor="#d1d1d1"
     inkscape:document-units="px"
     inkscape:zoom="0.5"
     inkscape:cx="548"
     inkscape:cy="596"
     inkscape:window-width="1920"
     inkscape:window-height="1043"
     inkscape:window-x="0"
     inkscape:window-y="0"
     inkscape:window-maximized="1"
     inkscape:current-layer="layer1"
     showguides="true" />
  <defs
     id="defs1">
    <rect
       x="-11.852692"
       y="222.41228"
       width="499.90472"
       height="152.69057"
       id="rect25" />
    <clipPath
       clipPathUnits="userSpaceOnUse"
       id="clipPath1">
      <g
         id="g2"
         transform="translate(5e-6,60.589586)">
        <g
           inkscape:label="Clip"
           id="use1"
           transform="translate(-5e-6,-60.589586)"
           clip-path="url(#clipPath1)">
          <g
             id="g24"
             transform="translate(-5e-6,-60.589586)">
            <g
               id="g12">
              <rect
                 style="fill:#563635;fill-opacity:1;stroke-width:0.264583"
                 id="rect5"
                 width="63.5"
                 height="84.666664"
                 x="52.916668"
                 y="105.83334"
                 rx="4.2333331"
                 ry="4.2333331" />
              <rect
                 style="fill:#563635;fill-opacity:1;stroke-width:0.0440972"
                 id="rect6"
                 width="10.583333"
                 height="14.111111"
                 x="63.5"
                 y="92.604164"
                 rx="0.7055555"
                 ry="0.7055555" />
              <rect
                 style="fill:#563635;fill-opacity:1;stroke-width:0.0440972"
                 id="rect7"
                 width="10.583333"
                 height="14.111111"
                 x="95.25"
                 y="92.604164"
                 rx="0.7055555"
                 ry="0.7055555" />
              <rect
                 style="fill:#43696a;fill-opacity:1;stroke-width:0.264583"
                 id="rect8"
                 width="21.166666"
                 height="15.875"
                 x="74.083336"
                 y="114.97229" />
              <rect
                 style="fill:#43696a;fill-opacity:1;stroke-width:0.264583"
                 id="rect9"
                 width="42.333332"
                 height="3.175"
                 x="63.500004"
                 y="163.49052" />
              <rect
                 style="fill:#43696a;fill-opacity:1;stroke-width:0.264583"
                 id="rect10"
                 width="3.175"
                 height="15.875"
                 x="63.500004"
                 y="163.49052" />
              <rect
                 style="fill:#43696a;fill-opacity:1;stroke-width:0.264583"
                 id="rect11"
                 width="3.175"
                 height="15.875"
                 x="102.65833"
                 y="163.49052" />
            </g>
            <g
               id="g17">
              <rect
                 style="fill:#563635;fill-opacity:1;stroke-width:0.176389"
                 id="rect12"
                 width="42.333332"
                 height="56.444443"
                 x="121.70834"
                 y="117.73959"
                 rx="2.822222"
                 ry="2.822222" />
              <rect
                 style="fill:#563635;fill-opacity:1;stroke-width:0.0293981"
                 id="rect13"
                 width="7.0555553"
                 height="9.4074068"
                 x="132.29167"
                 y="108.92014"
                 rx="0.47037032"
                 ry="0.47037032" />
              <rect
                 style="fill:#563635;fill-opacity:1;stroke-width:0.0293981"
                 id="rect14"
                 width="7.0555553"
                 height="9.4074068"
                 x="146.40277"
                 y="108.92014"
                 rx="0.47037032"
                 ry="0.47037032" />
              <rect
                 style="fill:#abd1af;fill-opacity:1;stroke-width:0.176389"
                 id="rect15"
                 width="14.111111"
                 height="10.583333"
                 x="135.81944"
                 y="123.83222" />
              <rect
                 style="fill:#abd1af;fill-opacity:1;stroke-width:0.176389"
                 id="rect16"
                 width="28.222221"
                 height="2.1166666"
                 x="128.76389"
                 y="156.1777" />
              <rect
                 style="fill:#abd1af;fill-opacity:1;stroke-width:0.176389"
                 id="rect17"
                 width="2.1166666"
                 height="10.583333"
                 x="154.86943"
                 y="156.1777" />
            </g>
            <g
               id="g23">
              <rect
                 style="fill:#563635;fill-opacity:1;stroke-width:0.176389"
                 id="rect18"
                 width="42.333332"
                 height="56.444443"
                 x="5.291667"
                 y="117.73959"
                 rx="2.822222"
                 ry="2.822222" />
              <rect
                 style="fill:#563635;fill-opacity:1;stroke-width:0.0293981"
                 id="rect19"
                 width="7.0555553"
                 height="9.4074068"
                 x="15.875"
                 y="108.92014"
                 rx="0.47037032"
                 ry="0.47037032" />
              <rect
                 style="fill:#563635;fill-opacity:1;stroke-width:0.0293981"
                 id="rect20"
                 width="7.0555553"
                 height="9.4074068"
                 x="29.986105"
                 y="108.92014"
                 rx="0.47037032"
                 ry="0.47037032" />
              <rect
                 style="fill:#d9d3a8;fill-opacity:1;stroke-width:0.176389"
                 id="rect21"
                 width="14.111111"
                 height="10.583333"
                 x="19.402771"
                 y="123.83222" />
              <rect
                 style="fill:#d9d3a8;fill-opacity:1;stroke-width:0.176389"
                 id="rect22"
                 width="28.222221"
                 height="2.1166666"
                 x="12.347219"
                 y="156.1777" />
              <rect
                 style="fill:#d9d3a8;fill-opacity:1;stroke-width:0.176389"
                 id="rect23"
                 width="2.1166666"
                 height="10.583333"
                 x="12.347219"
                 y="156.1777" />
            </g>
          </g>
        </g>
      </g>
    </clipPath>
  </defs>
  <g
     inkscape:groupmode="layer"
     id="layer2"
     inkscape:label="Background">
    <rect
       style="opacity:1;fill:#fad0a8;fill-opacity:1;stroke-width:0.2;stroke-linecap:square;stroke-miterlimit:8"
       id="rect24"
       width="76.200005"
       height="50.800003"
       x="39.952084"
       y="-71.172913" />
    <rect
       style="fill:#f39237;fill-opacity:1;stroke-width:0.2;stroke-linecap:square;stroke-miterlimit:8"
       id="rect26"
       width="3"
       height="50.799999"
       x="-75.141663"
       y="-69.056244" />
    <rect
       style="fill:#f39237;fill-opacity:1;stroke-width:0.2;stroke-linecap:square;stroke-miterlimit:8"
       id="rect27"
       width="3"
       height="50.799999"
       x="-1.9416674"
       y="-69.056244" />
    <rect
       style="fill:#f39237;fill-opacity:1;stroke-width:0.2;stroke-linecap:square;stroke-miterlimit:8"
       id="rect28"
       width="76.199997"
       height="3"
       x="-75.141663"
       y="-69.056252" />
    <rect
       style="fill:#f39237;fill-opacity:1;stroke-width:0.2;stroke-linecap:square;stroke-miterlimit:8"
       id="rect29"
       width="76.199997"
       height="3"
       x="-75.141663"
       y="-21.256248" />
  </g>
  <g
     inkscape:label="Layer 1"
     inkscape:groupmode="layer"
     id="layer1">
    <circle
       style="font-variation-settings:'wght' 700;fill:#f39237;stroke-width:0.2;stroke-linecap:square;stroke-miterlimit:8"
       id="path3"
       cx="135.46666"
       cy="135.46666"
       r="135.46666" />
    <circle
       style="font-variation-settings:'wght' 700;fill:#fad0a8;fill-opacity:1;stroke-width:0.2;stroke-linecap:square;stroke-miterlimit:8"
       id="path3-1"
       cx="135.46666"
       cy="135.46666"
       r="129.11667" />
    <path
       id="path3-1-0"
       style="font-variation-settings:'wght' 700;fill:none;stroke:none;stroke-width:0.2;stroke-linecap:square;stroke-miterlimit:8"
       d="M 254.42916,135.46667 A 118.9625,118.9625 0 0 0 135.46667,16.504166 118.9625,118.9625 0 0 0 16.504166,135.46667 118.9625,118.9625 0 0 0 135.46667,254.42916 118.9625,118.9625 0 0 0 254.42916,135.46667 Z" />
    <text
       xml:space="preserve"
       style="font-size:12.9191px;line-height:1.25;font-family:sans-serif;-inkscape-font-specification:'sans-serif, @wght=700';font-variant-ligatures:none;font-variation-settings:'wght' 700;word-spacing:0px;fill:#6c2a09;fill-opacity:1;stroke-width:0.264583"
       x="-42.111794"
       y="1.6887267"
       id="text36"><tspan
         sodipodi:role="line"
         id="tspan30"
         style="fill:#6c2a09;fill-opacity:1;stroke-width:0.264583"
         x="-42.111794"
         y="1.6887267">.</tspan></text>
    <text
       xml:space="preserve"
       transform="matrix(0.13599746,0,0,0.13599746,-82.684879,93.126996)"
       id="text1"
       style="font-style:normal;font-variant:normal;font-weight:bold;font-stretch:normal;font-size:68.0315px;line-height:1.25;font-family:'Victor Mono';-inkscape-font-specification:'Victor Mono Bold';font-variant-ligatures:none;font-variant-caps:normal;font-variant-numeric:normal;font-variant-east-asian:normal;word-spacing:0px;white-space:pre;shape-inside:url(#rect25);display:inline;fill:#6c2a09;fill-opacity:1;stroke-width:1.9455"><tspan
         x="-11.853516"
         y="286.34912"
         id="tspan9">MyRuck.Club</tspan></text>
    <g
       id="g1"
       transform="translate(-93.397914,69.13894)">
      <rect
         style="fill:#fad0a8;fill-opacity:1;stroke-width:0.264583"
         id="rect4"
         width="1.0378376"
         height="5.1891885"
         x="31.181084"
         y="27.729116" />
      <rect
         style="fill:#fad0a8;fill-opacity:1;stroke-width:0.264583"
         id="rect4-7"
         width="1.0378376"
         height="5.1891885"
         x="43.981079"
         y="27.729116" />
    </g>
    <rect
       style="fill:#fad0a8;fill-opacity:1;stroke-width:0.176389"
       id="rect4-7-7"
       width="0.69189179"
       height="3.4594591"
       x="-32.328903"
       y="96.874489" />
    <rect
       style="fill:#fad0a8;fill-opacity:1;stroke-width:0.176389"
       id="rect4-8-2"
       width="0.69189179"
       height="3.4594591"
       x="-78.958824"
       y="96.519402" />
    <g
       id="g38"
       transform="translate(-94.37831,32.95913)">
      <rect
         style="font-variation-settings:'wght' 700;fill:#fad0a8;fill-opacity:1;stroke-width:0.2;stroke-linecap:square;stroke-miterlimit:8"
         id="rect70"
         width="21"
         height="10.335"
         x="4.9706168"
         y="35.907066" />
      <text
         xml:space="preserve"
         style="font-size:12.9191px;line-height:1.25;font-family:'Victor Mono';-inkscape-font-specification:'Victor Mono, @wght=700';font-variant-ligatures:none;font-variation-settings:'wght' 700;word-spacing:0px;fill:#6c2a09;fill-opacity:1;stroke-width:0.264584"
         x="18.348345"
         y="46.242069"
         id="text33"><tspan
           sodipodi:role="line"
           id="tspan33"
           style="fill:#6c2a09;fill-opacity:1;stroke-width:0.264584"
           x="18.348345"
           y="46.242069">R</tspan></text>
      <path
         id="text29"
         style="font-size:8.61271px;line-height:1.25;font-family:'Victor Mono';-inkscape-font-specification:'Victor Mono, @wght=700';font-variant-ligatures:none;font-variation-settings:'wght' 700;word-spacing:0px;fill:#6c2a09;stroke-width:0.264584"
         d="m 12.740812,39.352049 2.118734,4.366658 v 2.52336 h 0.529166 0.331763 0.529167 v -2.52336 l 2.118733,-4.366658 h -0.529166 -0.409278 -0.529166 l -1.346171,2.749186 -1.346172,-2.749186 h -0.529166 -0.409278 z" />
      <text
         xml:space="preserve"
         style="font-style:normal;font-variant:normal;font-weight:normal;font-stretch:normal;font-size:12.9191px;line-height:1.25;font-family:'Victor Mono';-inkscape-font-specification:'Victor Mono, @wght=700';font-variant-ligatures:none;font-variant-caps:normal;font-variant-numeric:normal;font-variant-east-asian:normal;font-variation-settings:'wght' 700;word-spacing:0px;fill:#6c2a09;fill-opacity:1;stroke-width:0.264584"
         x="4.5184503"
         y="46.242069"
         id="text32"><tspan
           sodipodi:role="line"
           id="tspan32"
           style="font-style:normal;font-variant:normal;font-weight:normal;font-stretch:normal;font-size:12.9191px;font-family:'Victor Mono';-inkscape-font-specification:'Victor Mono, @wght=700';font-variant-ligatures:none;font-variant-caps:normal;font-variant-numeric:normal;font-variant-east-asian:normal;font-variation-settings:'wght' 700;fill:#6c2a09;fill-opacity:1;stroke-width:0.264584"
           x="4.5184503"
           y="46.242069">M</tspan></text>
    </g>
    <rect
       style="font-variation-settings:'wght' 700;fill:#fad0a8;fill-opacity:1;stroke-width:0.199999;stroke-linecap:square;stroke-miterlimit:8"
       id="rect35"
       width="0.71772587"
       height="1.4354517"
       x="-89.781288"
       y="108.66864" />
    <rect
       style="font-variation-settings:'wght' 700;fill:#fad0a8;fill-opacity:1;stroke-width:0.199999;stroke-linecap:square;stroke-miterlimit:8"
       id="rect42"
       width="0.71772587"
       height="1.4354517"
       x="-72.916893"
       y="108.44894" />
    <g
       id="g71"
       transform="translate(-91.856735,43.69504)">
      <path
         id="path66"
         style="font-size:9.51238px;line-height:1.25;font-family:'Victor Mono';-inkscape-font-specification:'Victor Mono, @wght=700';font-variant-ligatures:none;font-variation-settings:'wght' 700;word-spacing:0px;fill:#6c2a09;stroke-width:0.264584"
         d="m 35.081866,66.831368 v 7.610312 h 0.951219 0.479118 v -3.58656 h 0.215229 0.02152 l 2.309034,3.58656 h 1.093925 0.479118 l -2.783473,-4.335948 2.802657,-3.274364 h -0.479119 -0.70043 -0.479119 L 36.5122,69.72105 v -2.889682 h -0.479118 z"
         transform="scale(1.1044587,0.90542091)" />
      <path
         id="path63"
         style="font-size:9.51238px;line-height:1.25;font-family:'Victor Mono';-inkscape-font-specification:'Victor Mono, @wght=700';font-variant-ligatures:none;font-variation-settings:'wght' 700;word-spacing:0px;fill:#6c2a09;stroke-width:0.264584"
         d="m 31.752366,66.698385 c -0.475619,0 -0.874843,0.07274 -1.198264,0.218595 -0.323421,0.139515 -0.583851,0.365024 -0.780439,0.675762 -0.19659,0.304396 -0.338869,0.706711 -0.427651,1.207696 -0.08244,0.500985 -0.123991,1.109784 -0.123991,1.826384 0,0.72294 0.04155,1.335101 0.123991,1.836086 0.08878,0.500985 0.231061,0.906661 0.427651,1.217399 0.196588,0.310738 0.457018,0.539037 0.780439,0.684893 0.323421,0.139516 0.722645,0.209464 1.198264,0.209464 0.08366,0 0.164808,0.0041 0.242835,0 0.07665,0.0041 0.155208,0 0.236284,0 0.443911,0 0.808553,-0.05707 1.093925,-0.171224 0.285371,-0.12049 0.520267,-0.31689 0.704173,-0.589579 0.190248,-0.279029 0.352028,-0.650017 0.485201,-1.112953 l -1.38308,-0.304777 c -0.101466,0.348787 -0.209163,0.618498 -0.323312,0.808745 -0.107807,0.183906 -0.244054,0.31372 -0.408935,0.389819 -0.106817,0.047 -0.239095,0.09861 -0.398174,0.0936 -0.29266,-0.0092 -0.529233,-0.117871 -0.711659,-0.264826 -0.228297,-0.190248 -0.393094,-0.50695 -0.494559,-0.95086 -0.09512,-0.450253 -0.142706,-1.065774 -0.142706,-1.845789 0,-0.780016 0.04758,-1.391605 0.142706,-1.835516 0.101465,-0.443911 0.266262,-0.757823 0.494559,-0.941729 0.181404,-0.14613 0.416046,-0.255563 0.706513,-0.264255 0.161325,-0.0048 0.295405,0.05036 0.40332,0.102164 0.164881,0.06976 0.301128,0.202932 0.408935,0.399521 0.114149,0.190247 0.221846,0.46332 0.323312,0.818448 1.38308,-0.313909 -2.8e-4,-0.01314 1.38308,-0.313909 -0.133173,-0.469278 -0.294953,-0.840265 -0.485201,-1.112953 -0.183906,-0.27903 -0.421818,-0.478792 -0.713531,-0.599282 -0.285371,-0.120491 -0.646998,-0.180926 -1.084567,-0.180926 -0.08184,0 -0.161287,-0.0043 -0.238624,0 -0.07739,-0.0043 -0.157651,0 -0.240495,0 z"
         transform="scale(1.1044587,0.90542091)"
         sodipodi:nodetypes="scccscscscsccccccsccscssccccccscss" />
      <path
         id="text30"
         style="font-size:9.51238px;line-height:1.25;font-family:'Victor Mono';-inkscape-font-specification:'Victor Mono, @wght=700';font-variant-ligatures:none;font-variation-settings:'wght' 700;word-spacing:0px;fill:#6c2a09;stroke-width:0.264584"
         d="m 23.648057,66.831368 v 4.699514 c 0,0.741966 0.06963,1.33789 0.209147,1.788143 0.145856,0.443911 0.383769,0.763974 0.713531,0.960564 0.329762,0.196589 0.773552,0.295075 1.331612,0.295075 0.08285,0 0.161905,0.0043 0.239559,0 0.077,0.0042 0.157645,0 0.23956,0 0.564401,0 1.008192,-0.09849 1.331613,-0.295075 0.329762,-0.19659 0.564658,-0.516653 0.704173,-0.960564 0.145857,-0.450253 0.218504,-1.046177 0.218504,-1.788143 v -4.699514 h -0.479118 -0.472101 -0.479118 v 4.699514 c 0,0.55806 -0.04108,0.995633 -0.123523,1.312713 -0.0761,0.317079 -0.20933,0.538657 -0.399577,0.665488 -0.137199,0.09462 -0.316924,0.178073 -0.538541,0.178073 -0.221617,0 -0.400354,-0.08345 -0.542283,-0.178073 -0.190248,-0.126831 -0.326495,-0.348409 -0.408936,-0.665488 -0.0761,-0.31708 -0.114165,-0.754653 -0.114165,-1.312713 v -4.699514 h -0.479118 -0.4721 z"
         transform="scale(1.1044587,0.90542091)"
         sodipodi:nodetypes="cscsscsccsccccscczscscccc" />
    </g>
    <rect
       style="font-variation-settings:'wght' 700;fill:#fad0a8;fill-opacity:1;stroke-width:0.2;stroke-linecap:square;stroke-miterlimit:8"
       id="rect36"
       width="1.7510058"
       height="1.4354517"
       x="-71.954025"
       y="99.627022" />
    <rect
       style="font-variation-settings:'wght' 700;fill:#fad0a8;fill-opacity:1;stroke-width:0.2;stroke-linecap:square;stroke-miterlimit:8"
       id="rect36-8"
       width="1.7510058"
       height="1.4354517"
       x="-59.753479"
       y="106.20658" />
    <rect
       style="font-variation-settings:'wght' 700;fill:#fad0a8;fill-opacity:1;stroke-width:0.199999;stroke-linecap:square;stroke-miterlimit:8"
       id="rect37"
       width="1.4354517"
       height="1.4354517"
       x="-65.630775"
       y="109.06811" />
    <g
       id="g41"
       transform="translate(-92.068816,64.853018)">
      <rect
         style="font-variation-settings:'wght' 700;fill:#fad0a8;fill-opacity:1;stroke-width:0.2;stroke-linecap:square;stroke-miterlimit:8"
         id="rect71"
         width="21"
         height="10.335"
         x="50.229382"
         y="35.907066" />
      <path
         id="path57"
         style="font-size:8.61271px;line-height:1.25;font-family:'Victor Mono';-inkscape-font-specification:'Victor Mono, @wght=700';font-variant-ligatures:none;font-variation-settings:'wght' 700;word-spacing:0px;fill:#6c2a09;fill-opacity:1;stroke-width:0.264584"
         d="m 66.566102,39.229063 v 6.890019 h 0.529167 1.53789 0.529167 c 0.511021,0 0.915822,-0.06586 1.214396,-0.197921 0.304316,-0.132061 0.522679,-0.347382 0.65474,-0.645956 0.132062,-0.298574 0.197921,-0.692236 0.197921,-1.180289 0,-0.327284 -0.02584,-0.596807 -0.07751,-0.809253 -0.05168,-0.212447 -0.137805,-0.387746 -0.258383,-0.525549 -0.114836,-0.137804 -0.269866,-0.25534 -0.465088,-0.352951 0.143545,-0.09761 0.258555,-0.204006 0.344682,-0.318843 0.08612,-0.114836 0.146414,-0.255685 0.180868,-0.422197 0.04019,-0.172254 0.06046,-0.384531 0.06046,-0.63717 0,-0.436377 -0.06638,-0.783932 -0.198437,-1.042314 -0.132062,-0.264122 -0.349909,-0.456131 -0.654224,-0.576709 -0.298574,-0.120578 -0.703375,-0.180867 -1.214396,-0.180867 h -0.529167 -1.322916 z m 0.861446,0.7922 h 0.990637 c 0.321542,0 0.56827,0.03141 0.740524,0.09457 0.177996,0.05742 0.298575,0.160772 0.361735,0.310059 0.0689,0.143545 0.103352,0.344683 0.103352,0.603064 0,0.304316 -0.03445,0.531292 -0.103352,0.680579 -0.0689,0.14929 -0.189481,0.2496 -0.361735,0.301273 -0.172254,0.04593 -0.418982,0.06873 -0.740524,0.06873 h -0.990637 z m 0,2.850988 h 1.205611 c 0.3158,0 0.560001,0.02836 0.732255,0.08578 0.177996,0.05742 0.301618,0.175471 0.37052,0.353467 0.0689,0.172255 0.103353,0.433165 0.103353,0.783415 0,0.315799 -0.03445,0.56557 -0.103353,0.749308 -0.0689,0.177996 -0.192524,0.304662 -0.37052,0.379305 -0.172254,0.0689 -0.416455,0.103353 -0.732255,0.103353 h -1.205611 z" />
      <path
         id="path56"
         style="font-size:8.61271px;line-height:1.25;font-family:'Victor Mono';-inkscape-font-specification:'Victor Mono, @wght=700';font-variant-ligatures:none;font-variation-settings:'wght' 700;word-spacing:0px;fill:#6c2a09;stroke-width:0.264584"
         d="m 61.354499,39.229063 v 4.254521 c 0,0.671792 0.06333,1.211354 0.189653,1.619022 0.132061,0.401927 0.347381,0.692235 0.645955,0.870231 0.298574,0.177996 0.700333,0.266651 1.205611,0.266651 0.09217,0 0.181064,0.0058 0.266134,0 0.08441,0.0058 0.171901,0 0.263033,0 0.511021,0 0.913296,-0.08866 1.206128,-0.266651 0.298574,-0.177996 0.51085,-0.468304 0.63717,-0.870231 0.132062,-0.407668 0.197921,-0.94723 0.197921,-1.619022 v -4.254521 h -0.529167 -0.331762 -0.529167 v 4.254521 c 0,0.505279 -0.03749,0.901468 -0.112138,1.188558 -0.0689,0.28709 -0.189481,0.488227 -0.361735,0.603063 -0.114195,0.07876 -0.259782,0.155027 -0.439766,0.15503 -0.179984,3e-6 -0.325251,-0.07627 -0.443384,-0.15503 -0.172254,-0.114836 -0.295877,-0.315973 -0.37052,-0.603063 -0.0689,-0.28709 -0.103353,-0.683279 -0.103353,-1.188558 v -4.254521 h -0.529167 -0.332279 z"
         sodipodi:nodetypes="cscsscsccsccccscczscscccc" />
      <rect
         style="font-variation-settings:'wght' 700;fill:#fad0a8;fill-opacity:1;stroke-width:0.199999;stroke-linecap:square;stroke-miterlimit:8"
         id="rect37-3-1"
         width="0.60000002"
         height="1.4354517"
         x="60.754498"
         y="44.806618" />
      <path
         id="text31"
         style="font-size:8.61271px;line-height:1.25;font-family:'Victor Mono';-inkscape-font-specification:'Victor Mono, @wght=700';font-variant-ligatures:none;font-variation-settings:'wght' 700;word-spacing:0px;fill:#6c2a09;stroke-width:0.264584"
         d="m 56.945232,39.229063 v 6.890019 h 0.529167 3.217375 0.529166 v -0.7922 h -0.529166 -2.355929 v -6.097819 h -0.529166 -0.33228 z" />
      <text
         xml:space="preserve"
         style="font-size:12.4819px;line-height:1.25;font-family:'Victor Mono';-inkscape-font-specification:'Victor Mono, @wght=700';font-variant-ligatures:none;font-variation-settings:'wght' 700;word-spacing:0px;fill:#6c2a09;fill-opacity:1;stroke-width:0.264584"
         x="49.617771"
         y="46.067322"
         id="text34"><tspan
           sodipodi:role="line"
           id="tspan34"
           style="fill:#6c2a09;fill-opacity:1;stroke-width:0.264584"
           x="49.617771"
           y="46.067322">C</tspan></text>
      <rect
         style="font-variation-settings:'wght' 700;fill:#fad0a8;fill-opacity:1;stroke-width:0.199999;stroke-linecap:square;stroke-miterlimit:8"
         id="rect37-3"
         width="0.60000002"
         height="1.4354517"
         x="65.966103"
         y="39.229065" />
      <rect
         style="font-variation-settings:'wght' 700;fill:#fad0a8;fill-opacity:1;stroke-width:0.2;stroke-linecap:square;stroke-miterlimit:8"
         id="rect37-3-1-8"
         width="0.40000001"
         height="1.4354517"
         x="56.545231"
         y="43.032242" />
    </g>
    <path
       d="m -45.439151,99.485238 q -0.620117,0 -0.852661,-0.219624 -0.232543,-0.219625 -0.232543,-0.788065 0,-0.568441 0.232543,-0.788065 0.232544,-0.219625 0.852661,-0.219625 0.620117,0 0.852661,0.219625 0.232543,0.219624 0.232543,0.788065 0,0.56844 -0.232543,0.788065 -0.232544,0.219624 -0.852661,0.219624 z"
       id="text35"
       style="font-size:12.9191px;line-height:1.25;font-family:'Victor Mono';-inkscape-font-specification:'Victor Mono, @wght=700';font-variant-ligatures:none;font-variation-settings:'wght' 700;word-spacing:0px;fill:#6c2a09;stroke-width:0.264584"
       aria-label="." />
    <text
       xml:space="preserve"
       style="font-style:normal;font-variant:normal;font-weight:normal;font-stretch:normal;font-size:12.9191px;line-height:1.25;font-family:Sans;-inkscape-font-specification:'Sans, @wght=700';font-variant-ligatures:none;font-variant-caps:normal;font-variant-numeric:normal;font-variant-east-asian:normal;font-variation-settings:'wght' 700;word-spacing:0px;stroke-width:0.264583"
       x="-93.767174"
       y="145.29219"
       id="text2"><tspan
         sodipodi:role="line"
         id="tspan1"
         style="font-style:normal;font-variant:normal;font-weight:normal;font-stretch:normal;font-size:12.9191px;font-family:Sans;-inkscape-font-specification:'Sans, @wght=700';font-variant-ligatures:none;font-variant-caps:normal;font-variant-numeric:normal;font-variant-east-asian:normal;font-variation-settings:'wght' 700;stroke-width:0.264583"
         x="-93.767174"
         y="145.29219">MyRuck.Club</tspan></text>
    <g
       id="g39"
       transform="translate(-80.922671,-27.129025)">
      <rect
         style="font-variation-settings:'wght' 700;fill:#fad0a8;fill-opacity:1;stroke-width:0.2;stroke-linecap:square;stroke-miterlimit:8"
         id="rect30"
         width="21"
         height="10.335"
         x="-18.027336"
         y="62.11314" />
      <g
         id="g36">
        <text
           xml:space="preserve"
           style="font-size:11.1663px;line-height:1.25;font-family:Sans;-inkscape-font-specification:'Sans, @wght=700';font-variant-ligatures:none;font-variation-settings:'wght' 700;word-spacing:0px;fill:#6c2a09;fill-opacity:1;stroke-width:0.264583"
           x="-21.862041"
           y="62.618847"
           id="text3"
           transform="scale(0.86432647,1.1569702)"><tspan
             sodipodi:role="line"
             id="tspan3"
             style="fill:#6c2a09;fill-opacity:1;stroke-width:0.264583"
             x="-21.862041"
             y="62.618847">M</tspan></text>
        <text
           xml:space="preserve"
           style="font-size:12.9191px;line-height:1.25;font-family:Sans;-inkscape-font-specification:'Sans, @wght=700';font-variant-ligatures:none;font-variation-settings:'wght' 700;word-spacing:0px;fill:#6c2a09;fill-opacity:1;stroke-width:0.264583"
           x="-5.5539646"
           y="72.448143"
           id="text4"><tspan
             sodipodi:role="line"
             id="tspan4"
             style="fill:#6c2a09;fill-opacity:1;stroke-width:0.264583"
             x="-5.5539646"
             y="72.448143">R</tspan></text>
        <text
           xml:space="preserve"
           style="font-style:normal;font-variant:normal;font-weight:normal;font-stretch:normal;font-size:9px;line-height:1.25;font-family:Sans;-inkscape-font-specification:'Sans, @wght=700';font-variant-ligatures:none;font-variant-caps:normal;font-variant-numeric:normal;font-variant-east-asian:normal;font-variation-settings:'wght' 700;word-spacing:0px;fill:#6c2a09;fill-opacity:1;stroke-width:0.264583"
           x="-10.335313"
           y="72.448143"
           id="text6"><tspan
             sodipodi:role="line"
             id="tspan6"
             style="font-style:normal;font-variant:normal;font-weight:normal;font-stretch:normal;font-size:9px;font-family:Sans;-inkscape-font-specification:'Sans, @wght=700';font-variant-ligatures:none;font-variant-caps:normal;font-variant-numeric:normal;font-variant-east-asian:normal;font-variation-settings:'wght' 700;fill:#6c2a09;fill-opacity:1;stroke-width:0.264583"
             x="-10.335313"
             y="72.448143">Y</tspan></text>
      </g>
    </g>
    <rect
       style="font-variation-settings:'wght' 700;fill:#fad0a8;fill-opacity:1;stroke-width:0.2;stroke-linecap:square;stroke-miterlimit:8"
       id="rect30-6"
       width="21"
       height="10.335"
       x="-62.149216"
       y="-34.267624" />
    <text
       xml:space="preserve"
       style="font-size:11.9004px;line-height:1.25;font-family:Sans;-inkscape-font-specification:'Sans, @wght=700';font-variant-ligatures:none;font-variation-settings:'wght' 700;word-spacing:0px;fill:#6c2a09;fill-opacity:1;stroke-width:0.264583"
       x="-91.897484"
       y="1.6507527"
       id="text3-3"
       transform="scale(0.9211457,1.0856046)"><tspan
         sodipodi:role="line"
         id="tspan3-6"
         style="fill:#6c2a09;fill-opacity:1;stroke-width:0.264583"
         x="-91.897484"
         y="1.6507527">M</tspan></text>
    <text
       xml:space="preserve"
       style="font-size:12.9191px;line-height:1.25;font-family:Sans;-inkscape-font-specification:'Sans, @wght=700';font-variant-ligatures:none;font-variation-settings:'wght' 700;word-spacing:0px;fill:#6c2a09;fill-opacity:1;stroke-width:0.264583"
       x="-70.191116"
       y="1.7920699"
       id="text4-5"><tspan
         sodipodi:role="line"
         id="tspan4-6"
         style="fill:#6c2a09;fill-opacity:1;stroke-width:0.264583"
         x="-70.191116"
         y="1.7920699">R</tspan></text>
    <text
       xml:space="preserve"
       style="font-style:normal;font-variant:normal;font-weight:normal;font-stretch:normal;font-size:9px;line-height:1.25;font-family:Sans;-inkscape-font-specification:'Sans, @wght=700';font-variant-ligatures:none;font-variant-caps:normal;font-variant-numeric:normal;font-variant-east-asian:normal;font-variation-settings:'wght' 700;word-spacing:0px;fill:#6c2a09;fill-opacity:1;stroke-width:0.264583"
       x="-74.972397"
       y="1.7920699"
       id="text6-3"><tspan
         sodipodi:role="line"
         id="tspan6-9"
         style="font-style:normal;font-variant:normal;font-weight:normal;font-stretch:normal;font-size:9px;font-family:Sans;-inkscape-font-specification:'Sans, @wght=700';font-variant-ligatures:none;font-variant-caps:normal;font-variant-numeric:normal;font-variant-east-asian:normal;font-variation-settings:'wght' 700;fill:#6c2a09;fill-opacity:1;stroke-width:0.264583"
         x="-74.972397"
         y="1.7920699">Y</tspan></text>
    <text
       xml:space="preserve"
       style="font-size:8.99999px;line-height:1.25;font-family:Sans;-inkscape-font-specification:'Sans, @wght=700';font-variant-ligatures:none;font-variation-settings:'wght' 700;word-spacing:0px;fill:#6c2a09;fill-opacity:1;stroke-width:0.264583"
       x="-61.678783"
       y="1.7020857"
       id="text7"><tspan
         sodipodi:role="line"
         id="tspan7"
         style="fill:#6c2a09;fill-opacity:1;stroke-width:0.264583"
         x="-61.678783"
         y="1.7020857">UCK</tspan></text>
    <rect
       style="font-variation-settings:'wght' 700;fill:#fad0a8;fill-opacity:1;stroke-width:0.2;stroke-linecap:square;stroke-miterlimit:8"
       id="rect30-7"
       width="21"
       height="10.335"
       x="-38.780209"
       y="-34.548256" />
    <g
       id="g37"
       transform="translate(-78.6227,-70.190846)">
      <text
         xml:space="preserve"
         style="font-size:11.9369px;line-height:1.25;font-family:Sans;-inkscape-font-specification:'Sans, @wght=700';font-variant-ligatures:none;font-variation-settings:'wght' 700;word-spacing:0px;fill:#6c2a09;fill-opacity:1;stroke-width:0.264583"
         x="42.833504"
         y="66.390884"
         id="text5"
         transform="scale(0.92397248,1.0822833)"><tspan
           sodipodi:role="line"
           id="tspan5"
           style="fill:#6c2a09;fill-opacity:1;stroke-width:0.264583"
           x="42.833504"
           y="66.390884">C</tspan></text>
      <text
         xml:space="preserve"
         style="font-size:8.70279px;line-height:1.25;font-family:Sans;-inkscape-font-specification:'Sans, @wght=700';font-variant-ligatures:none;font-variation-settings:'wght' 700;letter-spacing:-0.661458px;word-spacing:0px;fill:#6c2a09;fill-opacity:1;stroke-width:0.264583"
         x="47.83371"
         y="69.518883"
         id="text8"
         transform="scale(0.96697799,1.0341497)"><tspan
           sodipodi:role="line"
           id="tspan8"
           style="letter-spacing:-0.661458px;fill:#6c2a09;fill-opacity:1;stroke-width:0.264583"
           x="47.83371"
           y="69.518883">LUB</tspan></text>
    </g>
    <path
       style="fill:#6c2a09;fill-opacity:1;stroke:none;stroke-width:0.264583px;stroke-linecap:butt;stroke-linejoin:miter;stroke-opacity:1"
       d="m -64.289215,26.297974 h -0.5 l 0.5,-7.999999 z"
       id="path42-5"
       sodipodi:nodetypes="cccc" />
    <rect
       style="font-variation-settings:'wght' 700;fill:#ff00ff;fill-opacity:1;stroke:none;stroke-width:0.2;stroke-linecap:square;stroke-miterlimit:8"
       id="rect43"
       width="0.1"
       height="2"
       x="-81.788414"
       y="25.365158" />
    <path
       style="fill:#6c2a09;fill-opacity:1;stroke:none;stroke-width:0.264583px;stroke-linecap:butt;stroke-linejoin:miter;stroke-opacity:1"
       d="m -82.737988,25.986891 h 0.5 l -0.5,-8 z"
       id="path42-9-0"
       sodipodi:nodetypes="cccc" />
    <g
       id="g3"
       transform="matrix(4.0756514,0,0,4.0756514,-19.815654,51.679728)"
       style="stroke-width:0.24536">
      <rect
         style="fill:#6c2a09;fill-opacity:1;stroke-width:0.064918"
         id="rect1"
         width="20.756754"
         height="27.675673"
         x="27.721622"
         y="8.8822527"
         rx="1.3837836"
         ry="1.3837836" />
      <rect
         style="fill:#6c2a09;fill-opacity:1;stroke-width:0.0108197"
         id="rect1-5"
         width="3.4594591"
         height="4.6126118"
         x="31.181082"
         y="4.5579243"
         rx="0.23063059"
         ry="0.23063059" />
      <rect
         style="fill:#6c2a09;fill-opacity:1;stroke-width:0.0108197"
         id="rect1-5-2"
         width="3.4594591"
         height="4.6126118"
         x="41.559456"
         y="4.5579243"
         rx="0.23063059"
         ry="0.23063059" />
      <rect
         style="fill:#fad0a8;fill-opacity:1;stroke-width:0.064918"
         id="rect2"
         width="6.9189181"
         height="5.1891885"
         x="34.640541"
         y="11.869574" />
      <rect
         style="fill:#fad0a8;fill-opacity:1;stroke-width:0.064918"
         id="rect3"
         width="13.837836"
         height="1.0378376"
         x="31.181084"
         y="27.729116" />
      <rect
         style="fill:#0a8184;fill-opacity:1;stroke-width:0.0432787"
         id="rect1-0"
         width="13.837836"
         height="18.450447"
         x="50.229382"
         y="12.774143"
         rx="0.92252237"
         ry="0.92252237" />
      <rect
         style="fill:#0a8184;fill-opacity:1;stroke-width:0.0072131"
         id="rect1-5-6"
         width="2.3063059"
         height="3.0750747"
         x="53.688839"
         y="9.8912582"
         rx="0.15375371"
         ry="0.15375371" />
      <rect
         style="fill:#0a8184;fill-opacity:1;stroke-width:0.0072131"
         id="rect1-5-2-2"
         width="2.3063059"
         height="3.0750747"
         x="58.301449"
         y="9.8912582"
         rx="0.15375371"
         ry="0.15375371" />
      <rect
         style="fill:#fad0a8;fill-opacity:1;stroke-width:0.0432787"
         id="rect2-6"
         width="4.6126118"
         height="3.4594591"
         x="54.841991"
         y="14.765689" />
      <rect
         style="fill:#fad0a8;fill-opacity:1;stroke-width:0.0432787"
         id="rect3-1"
         width="9.2252235"
         height="0.69189179"
         x="52.535683"
         y="25.338717" />
      <rect
         style="fill:#0a8184;fill-opacity:1;stroke-width:0.0432787"
         id="rect1-0-3"
         width="13.837836"
         height="18.450447"
         x="12.132781"
         y="12.774143"
         rx="0.92252237"
         ry="0.92252237" />
      <rect
         style="fill:#0a8184;fill-opacity:1;stroke-width:0.0072131"
         id="rect1-5-6-7"
         width="2.3063059"
         height="3.0750747"
         x="15.592239"
         y="9.8912582"
         rx="0.15375371"
         ry="0.15375371" />
      <rect
         style="fill:#0a8184;fill-opacity:1;stroke-width:0.0072131"
         id="rect1-5-2-2-5"
         width="2.3063059"
         height="3.0750747"
         x="20.204849"
         y="9.8912582"
         rx="0.15375371"
         ry="0.15375371" />
      <rect
         style="fill:#fad0a8;fill-opacity:1;stroke-width:0.0432787"
         id="rect2-6-9"
         width="4.6126118"
         height="3.4594591"
         x="16.74539"
         y="14.765689" />
      <rect
         style="fill:#fad0a8;fill-opacity:1;stroke-width:0.0432787"
         id="rect3-1-2"
         width="9.2252235"
         height="0.69189179"
         x="14.439086"
         y="25.338717" />
      <rect
         style="fill:#fad0a8;fill-opacity:1;stroke-width:0.0432787"
         id="rect3-1-2-7"
         width="9.2252235"
         height="0.69189179"
         x="14.439086"
         y="25.338745" />
      <path
         style="font-variation-settings:'wght' 700;fill:#0a8184;fill-opacity:1;stroke-width:0.0490719;stroke-linecap:square;stroke-miterlimit:8"
         d="m 14.482496,26.030636 -0.04341,-0.691947 v 0.691947 z"
         id="rect43-1" />
      <path
         style="font-variation-settings:'wght' 700;fill:#0a8184;fill-opacity:1;stroke-width:0.0490719;stroke-linecap:square;stroke-miterlimit:8"
         d="m 23.6209,26.030636 0.04341,-0.691947 v 0.691947 z"
         id="rect43-1-1" />
      <rect
         style="fill:#fad0a8;fill-opacity:1;stroke-width:0.0432787"
         id="rect3-1-2-7-3"
         width="9.2252235"
         height="0.69189179"
         x="52.535683"
         y="25.338745" />
      <path
         style="font-variation-settings:'wght' 700;fill:#0a8184;fill-opacity:1;stroke-width:0.0490719;stroke-linecap:square;stroke-miterlimit:8"
         d="m 52.579092,26.030636 -0.04341,-0.691947 v 0.691947 z"
         id="rect43-1-8" />
      <path
         style="font-variation-settings:'wght' 700;fill:#0a8184;fill-opacity:1;stroke-width:0.0490719;stroke-linecap:square;stroke-miterlimit:8"
         d="m 61.717496,26.030636 0.04341,-0.691947 v 0.691947 z"
         id="rect43-1-1-8" />
      <g
         id="g43"
         transform="translate(49.5789,1.0476189)"
         style="stroke-width:0.24536">
        <rect
           style="fill:#fad0a8;fill-opacity:1;stroke-width:0.064918"
           id="rect3-8"
           width="13.837836"
           height="1.0378376"
           x="-18.397816"
           y="26.681498" />
        <path
           style="font-variation-settings:'wght' 700;fill:#6c2a09;fill-opacity:1;stroke-width:0.0490719;stroke-linecap:square;stroke-miterlimit:8"
           d="m -18.332706,27.719335 -0.06511,-1.037663 v 1.037663 z"
           id="rect43-9" />
        <path
           style="font-variation-settings:'wght' 700;fill:#6c2a09;fill-opacity:1;stroke-width:0.0490719;stroke-linecap:square;stroke-miterlimit:8"
           d="m -4.6250894,27.719335 0.06511,-1.037663 v 1.037663 z"
           id="rect43-9-3" />
      </g>
    </g>
    <rect
       style="font-variation-settings:'wght' 700;fill:#ff00ff;fill-opacity:1;stroke:none;stroke-width:0.2;stroke-linecap:square;stroke-miterlimit:8"
       id="rect43-5"
       width="0.1"
       height="2"
       x="-66.07814"
       y="27.289021" />
    <path
       style="font-variation-settings:'wght' 700;fill:#ff00ff;stroke-width:0.2;stroke-linecap:square;stroke-miterlimit:8"
       d="m -71.702081,27.78125 0.06511,1.037663 V 27.78125 Z"
       id="rect43-9-4" />
    <rect
       style="fill:#ff8080;fill-opacity:1;stroke:#6c2a09;stroke-width:0.2;stroke-linecap:square;stroke-miterlimit:8;stroke-opacity:1"
       id="rect31"
       width="135.46666"
       height="135.46666"
       x="319.71664"
       y="-1.4875" />
    <text
       xml:space="preserve"
       style="font-size:32px;line-height:1.25;font-family:Inter;-inkscape-font-specification:'Inter, Normal';font-variant-ligatures:none;letter-spacing:0.529167px;word-spacing:0px;fill:#6c2a09;fill-opacity:1;stroke-width:0.264583"
       id="text37"
       inkscape:transform-center-x="-32.108912"
       inkscape:transform-center-y="112.40689"
       transform="rotate(76.47492,135.73474,135.29419)"><textPath
         xlink:href="#path3-1-0"
         id="textPath37"><tspan
           id="tspan31"
           style="letter-spacing:0.529167px;fill:#6c2a09;fill-opacity:1;stroke-width:0.264583">.</tspan></textPath></text>
    <text
       xml:space="preserve"
       style="font-size:32px;line-height:1.25;font-family:Inter;-inkscape-font-specification:'Inter, Normal';font-variant-ligatures:none;letter-spacing:0.529167px;word-spacing:0px;fill:#6c2a09;fill-opacity:1;stroke-width:0.264583"
       id="text38"
       inkscape:transform-center-x="-60.857521"
       inkscape:transform-center-y="85.899675"
       transform="rotate(72.180758,135.16075,135.44019)"><textPath
         xlink:href="#path3-1-0"
         id="textPath38"><tspan
           id="tspan37"
           style="letter-spacing:0.529167px;fill:#6c2a09;fill-opacity:1;stroke-width:0.264583">Club</tspan></textPath></text>
    <text
       xml:space="preserve"
       style="font-size:32px;line-height:1.25;font-family:Inter;-inkscape-font-specification:'Inter, Normal';font-variant-ligatures:none;letter-spacing:0.529167px;word-spacing:0px;fill:#6c2a09;fill-opacity:1;stroke-width:0.264583"
       id="text39"
       inkscape:transform-center-x="63.45046"
       inkscape:transform-center-y="89.729665"
       transform="rotate(137.08549,135.49047,135.50787)"><textPath
         xlink:href="#path3-1-0"
         id="textPath39"><tspan
           id="tspan38"
           style="letter-spacing:0.529167px;fill:#6c2a09;fill-opacity:1;stroke-width:0.264583">My</tspan></textPath></text>
    <text
       xml:space="preserve"
       style="font-size:32px;line-height:1.25;font-family:Inter;-inkscape-font-specification:'Inter, Normal';font-variant-ligatures:none;letter-spacing:0.529167px;word-spacing:0px;fill:#6c2a09;fill-opacity:1;stroke-width:0.264583"
       id="text40"
       inkscape:transform-center-x="8.7983771"
       inkscape:transform-center-y="103.76041"
       transform="rotate(113.67426,135.52894,135.46723)"><textPath
         xlink:href="#path3-1-0"
         id="textPath40"><tspan
           id="tspan39"
           style="letter-spacing:0.529167px;fill:#6c2a09;fill-opacity:1;stroke-width:0.264583">Ruck</tspan></textPath></text>
  </g>
</svg>
