<?xml version="1.0" encoding="UTF-8" standalone="no"?>
<!-- Created with Inkscape (http://www.inkscape.org/) -->

<svg
   width="341.33301"
   height="512"
   viewBox="0 0 90.311022 135.46667"
   version="1.1"
   id="svg4032"
   inkscape:version="1.3 (0e150ed6c4, 2023-07-21)"
   sodipodi:docname="ruck_pin.svg"
   inkscape:export-filename="ruck_pin.png"
   inkscape:export-xdpi="31.500002"
   inkscape:export-ydpi="31.500002"
   xml:space="preserve"
   xmlns:inkscape="http://www.inkscape.org/namespaces/inkscape"
   xmlns:sodipodi="http://sodipodi.sourceforge.net/DTD/sodipodi-0.dtd"
   xmlns="http://www.w3.org/2000/svg"
   xmlns:svg="http://www.w3.org/2000/svg"
   xmlns:rdf="http://www.w3.org/1999/02/22-rdf-syntax-ns#"
   xmlns:cc="http://creativecommons.org/ns#"
   xmlns:dc="http://purl.org/dc/elements/1.1/"><defs
     id="defs4026" /><sodipodi:namedview
     id="base"
     pagecolor="#ffffff"
     bordercolor="#666666"
     borderopacity="1.0"
     inkscape:pageopacity="0.0"
     inkscape:pageshadow="2"
     inkscape:zoom="0.98994949"
     inkscape:cx="99.500026"
     inkscape:cy="229.8097"
     inkscape:document-units="px"
     inkscape:current-layer="layer1"
     showgrid="false"
     units="px"
     inkscape:window-width="1920"
     inkscape:window-height="1011"
     inkscape:window-x="0"
     inkscape:window-y="0"
     inkscape:window-maximized="1"
     inkscape:measure-start="253.929,99.6429"
     inkscape:measure-end="253.929,84.2857"
     inkscape:showpageshadow="2"
     inkscape:pagecheckerboard="0"
     inkscape:deskcolor="#d1d1d1" /><metadata
     id="metadata4029"><rdf:RDF><cc:Work
         rdf:about=""><dc:format>image/svg+xml</dc:format><dc:type
           rdf:resource="http://purl.org/dc/dcmitype/StillImage" /><dc:creator><cc:Agent><dc:title>Franjo Lukezic</dc:title></cc:Agent></dc:creator><dc:publisher><cc:Agent><dc:title>Barefoot Stache</dc:title></cc:Agent></dc:publisher><dc:rights><cc:Agent><dc:title>Free for distribution, would be nice to mention creator, though not needed</dc:title></cc:Agent></dc:rights></cc:Work></rdf:RDF></metadata><g
     inkscape:label="Layer 1"
     inkscape:groupmode="layer"
     id="layer1"
     transform="translate(0,-161.53332)"><path
       id="path1214"
       style="fill:#008080;stroke-width:3.28083;stroke-linecap:round;stroke-linejoin:round;stroke-dasharray:6.56166;stroke-dashoffset:3.28083"
       d="M 45.155504,161.53332 C 20.216805,161.53333 -8.3703107e-7,181.75014 1.1629669e-6,206.68883 4.8216248e-4,215.77297 5.3019573,228.39692 7.8630727,232.14807 c 2.5611153,3.75114 37.2924313,64.85178 37.2924313,64.85178 0,0 34.72849,-61.09605 37.290367,-64.84765 2.561878,-3.75161 7.864892,-16.3776 7.865152,-25.46337 0,-24.9387 -20.216814,-45.15551 -45.155519,-45.15551 z"
       sodipodi:nodetypes="sczczcs" /><circle
       style="fill:#ffffff;fill-opacity:0.219302;stroke:none;stroke-width:0.375304;stroke-linecap:square;stroke-linejoin:bevel"
       id="path3"
       cx="45.155514"
       cy="207.32782"
       r="39.687458" /><g
       transform="matrix(0.37045789,0,0,0.37045789,21.741035,174.39588)"
       id="g3"
       style="fill:#cccccc"><path
         d="m 43.402,110.25 -19.834,54.493 a 8,6.997 20 0 0 5.124,9.31 8,6.997 20 0 0 9.91,-3.838 l 14.362,-39.459 z"
         id="path1"
         style="fill:#cccccc" /><circle
         transform="rotate(10)"
         r="16"
         cy="5.4130001"
         cx="79.815002"
         id="circle1"
         style="fill:#cccccc" /><path
         d="m 71.758,38.645 c -7.767,-0.178 -14.713,5.334 -16.104,13.22 l -9.473,53.726 4.872,10.45 18.823,3.184 9.981,-57.962 7.31,-3.84 C 88.702,48.72 82.892,40.421 74.189,38.887 a 16.121,16.121 0 0 0 -2.431,-0.242 z"
         id="path2"
         style="fill:#cccccc" /><rect
         transform="rotate(10)"
         ry="4"
         rx="4"
         y="37.582001"
         x="36.214001"
         height="56"
         width="24"
         id="rect2"
         style="fill:#cccccc" /><path
         d="m 54.873,94.608 h -0.07 c -3.146,0.026 -5.81,1.751 -6.768,4.385 l -2.162,5.94 1.12,2.4 0.02,0.049 29.57,63.411 c 1.633,3.503 6.203,4.828 10.208,2.96 4.004,-1.867 5.926,-6.22 4.293,-9.722 L 69.876,119.225 c -4.105,-8.613 -7.68,-16.113 -11.93,-24.07 a 9.004,9.004 0 0 0 -3.073,-0.547 z m 16.561,-40.01 20,34.64 a 8,8 0 0 0 10.928,2.929 8,8 0 0 0 2.928,-10.929 l -20,-34.64 z"
         id="path3-3"
         style="fill:#cccccc" /></g></g></svg>
